<svg xmlns="http://www.w3.org/2000/svg"  viewBox="0 0 512 512" width="96px" height="96px"><path fill="#127274" d="M419.3,237.8c-12.9-20.3-40.3-14.9-59.1-7.1c-20.3,8.3-39.2,21-53.5,37.7c-5.7,6.6-11.2,13.6-15.4,21.2c-2.1,3.9-6.8,12.3-3.4,15.5c1.5,1.4,2,3.1,1.7,4.7c13,17.7,34.2,21.7,55.3,17.3c23.5-4.9,45.7-16.4,61.7-34.5C419.3,278.3,431.1,256.3,419.3,237.8z"/><path fill="#BCBCBC" d="M473.6,155.5c-16.2-47.2-55.1-81.8-101.1-99.3c-53.8-20.5-113.2-16.7-167.8-1.4c-24.9,7-49.6,15.7-72.9,26.9C112,91.1,92.2,103,78,119.9c-16,19-21.6,42.6-18.4,67.1c2.7,20.8,10.1,40.5,18.1,59.8c0-0.5,0-1.1,0.1-1.6c0.5-7.9,1.8-15.7,3-23.5c0.9-5.4,1.7-12.6,6-16.5c5.2-4.7,13.5,2.5,8.3,7.3c-3.4,3.1-3.4,10.6-4,14.8c-1,6.8-2.3,13.4-2.5,20.3c-0.7,17.2,2,33.9,8.2,50c5.2,13.4,12,26.9,21,38.2c3.6,4.5,7.4,8.8,11.8,12.7c1.3,1.1,3.3,2.9,5.2,4.2c1.5-0.4,3.2-0.2,4.8,1c3.1,2.3,7.9,2.7,11.6,3.1c4.4,0.5,8.9,0.8,13.3,1.2c11.9,0.9,24,1.2,36,1.3c7.1,0,7.9,11,0.8,11c-12.3-0.1-24.8-0.6-37.1-1.4c11.7,11.8,20.7,26,28.2,40.8c5.7,11.3,10.3,22.8,18.2,32.9c7.4,9.5,16.6,17.8,27.4,23.3c22,11.2,49.5,11.6,73,5.1c25.6-7.1,44.8-24.5,57-48c6.6-12.7,10.8-26.5,15.4-40.1c3.5-10.3,7.1-20.5,11.3-30.5c-4.9,2.9-9.9,5.8-14.7,9c-1.2,0.8-2.4,1-3.6,0.9c-0.5,0.2-1,0.4-1.5,0.6c-0.8,1.9-2.5,3.4-4.6,3.4h-3c-5.4,0-8.2-6.7-3.5-10c4.2-3,10.2-3.6,13.9-7.1c1.1-1.1,2.5-1.7,4-1.8c13.2-7.8,27.3-14.9,37.5-26.2c10.8-12,18.8-26.8,22.5-42.6c4.2-17.6,2.2-35-1.4-52.6c-1.4-6.7-3.7-12.7-5.9-19.1c-1.6-4.9-3.1-10.2,0.3-14.6c4.3-5.7,12.5,1.6,8.3,7.3c1.3-1.7,0.8,0.2,1.2,1.6c0.5,1.5,0.9,2.9,1.5,4.4c1,2.7,2.2,5.3,3,8.1c2.4,8.5,3.9,17.4,5.1,26.1c1.4,10.2,1.7,20,0.6,29.7c10.5-14.4,18.7-30.6,22.6-48.2C482,199.4,480.8,176.7,473.6,155.5z M321.1,158.5c12.6,3.9,25.7,10.3,33.5,21.3c4.1,5.8-5,11.9-9.1,6.2c-6-8.5-16.8-13.7-26.5-16.7C312.3,167.2,314.3,156.4,321.1,158.5z M253.1,365.4c1.6-2.5,2.4-5.1,2.4-8.1c0-3,1.9-5.7,5.1-5.9c2.8-0.2,6,2.1,5.9,5.1c-0.1,4.8-0.9,9.7-3.6,13.9c-1.6,2.5-4.5,3.9-7.4,2.5C253.1,371.6,251.5,368,253.1,365.4z M164.9,159.7c8.8-8.9,16.8-18.1,28.3-23.6c6.4-3.1,10,7.4,3.6,10.4c-9.6,4.6-16.4,13-23.7,20.4C168.2,172,159.9,164.8,164.9,159.7z M120.9,307.6c-16.2-14.5-30-35.6-27.4-58.2c2.3-19.8,17.8-34.6,37.5-36.5c18.1-1.8,36.6,4.8,52.5,12.9c14.6,7.5,29.2,17,40.5,29c8.3,8.9,16,18.5,22.1,28.9c4.4,7.5,8.7,18.2,4.1,26.1c0.1,1.1-0.1,2.3-0.9,3.4C219.7,359.4,154,337.4,120.9,307.6z M323.7,412.3c-2.7,9.6-7.4,19.3-16.4,24.5c-9.1,5.2-19.3,6.3-29.6,5.8c-21.1-1-43.1-9.5-49.6-31.5c-2-6.8,8.4-10.4,10.4-3.6c5.1,17.4,22.9,23.7,39.6,24.3c7.6,0.2,16.4,0.2,23-4c6.4-4,9.8-10.3,11.8-17.5C314.8,403.4,325.6,405.5,323.7,412.3z M278.6,353.1c-0.2-5.6,10.8-6.2,11-0.7c0.2,5.6,2.8,10.9,3,16.5c0.2,5.6-10.8,6.2-11,0.7C281.3,364,278.8,358.7,278.6,353.1z M434.6,249.4c2.6,22.6-11.2,43.6-27.4,58.2c-33.1,29.8-98.9,51.8-128.5,5.7c-0.8-1.2-1-2.3-0.9-3.4c-4.6-7.9-0.3-18.6,4.1-26.1c6.1-10.5,13.8-20.1,22.1-28.9c11.3-12.1,25.9-21.5,40.5-29c15.9-8.1,34.4-14.6,52.5-12.9C416.8,214.8,432.3,229.6,434.6,249.4z"/><path fill="#127274" d="M236.8,289.6c-4.2-7.7-9.8-14.6-15.4-21.2c-14.3-16.7-33.2-29.3-53.5-37.7c-18.9-7.8-46.2-13.2-59.1,7.1c-11.7,18.5,0.1,40.4,12.7,54.7c16,18.2,38.2,29.7,61.7,34.5c21.1,4.4,42.3,0.3,55.3-17.3c-0.2-1.6,0.2-3.3,1.7-4.7C243.7,301.9,238.9,293.4,236.8,289.6z"/><path d="M477.8,136.6c-20.3-44.4-60.6-76.1-105.9-92.3C317.8,25,259.3,28.9,204.5,43.5c-25.3,6.7-50.3,15.7-74,26.7C110.3,79.5,90.8,91,75,106.9c-19.4,19.5-28.2,44.8-27.1,72.1c1.4,34.1,17.5,65.7,30,96.7c0.5,1.2,1.2,2.1,2.1,2.6c1.6,8.3,4,16.5,7.1,24.6c5.7,14.7,13.6,29.4,23.7,41.6c6.3,7.7,16.7,20.8,27.8,20.8c3.1,1.2,6.5,1.9,9.9,2.3c0.1,1.2,0.7,2.3,1.9,3.3c10.6,9,18.8,20,25.9,31.8c6.8,11.3,11.3,23.7,17.9,35.1c12.3,21,31.8,37.5,55.3,44.2c23.7,6.8,50.6,4.8,73.6-3.4c24.6-8.7,42.7-28.3,54.7-50.8c6.7-12.6,10.8-26.6,15.4-40.1c5.1-15.2,10.5-30.2,17.6-44.6c0.2-0.4,0.3-0.8,0.4-1.2c5-3.5,9.9-7.2,14.2-11.6c11.3-11.3,19.5-26,24.6-41.2c0,0,0,0,0,0c1.4,0,2.8-0.5,4-1.9c17.8-20.6,30.7-45,35.3-71.9C494,188.7,489.1,161.2,477.8,136.6z M477.2,221.2c-3.9,17.5-12.1,33.7-22.6,48.2c1.1-9.7,0.7-19.5-0.6-29.7c-1.2-8.7-2.7-17.6-5.1-26.1c-0.8-2.8-2-5.4-3-8.1c-0.5-1.4-1-2.9-1.5-4.4c-0.4-1.4,0.1-3.3-1.2-1.6c4.2-5.6-4-12.9-8.3-7.3c-3.4,4.5-1.9,9.8-0.3,14.6c2.2,6.5,4.5,12.4,5.9,19.1c3.6,17.5,5.6,35,1.4,52.6c-3.7,15.8-11.7,30.6-22.5,42.6c-10.2,11.3-24.4,18.4-37.5,26.2c-1.4,0.1-2.8,0.8-4,1.8c-3.8,3.5-9.7,4.1-13.9,7.1c-4.7,3.3-1.9,10,3.5,10h3c2.1,0,3.9-1.5,4.6-3.4c0.5-0.2,1-0.4,1.5-0.6c1.1,0.1,2.3-0.1,3.6-0.9c4.8-3.1,9.7-6,14.7-9c-4.2,10-7.8,20.3-11.3,30.5c-4.6,13.5-8.8,27.3-15.4,40.1c-12.2,23.5-31.3,40.9-57,48c-23.5,6.5-51,6.1-73-5.1c-10.8-5.5-20-13.8-27.4-23.3c-7.9-10.1-12.5-21.6-18.2-32.9c-7.4-14.8-16.5-29-28.2-40.8c12.3,0.8,24.7,1.3,37.1,1.4c7.1,0,6.2-10.9-0.8-11c-11.9-0.1-24.1-0.4-36-1.3c-4.5-0.3-8.9-0.6-13.3-1.2c-3.7-0.5-8.5-0.8-11.6-3.1c-1.6-1.2-3.3-1.4-4.8-1c-1.9-1.3-3.9-3.1-5.2-4.2c-4.3-3.8-8.2-8.1-11.8-12.7c-9-11.3-15.8-24.8-21-38.2c-6.2-16.1-8.9-32.8-8.2-50c0.3-6.8,1.6-13.5,2.5-20.3c0.6-4.2,0.6-11.8,4-14.8c5.3-4.8-3.1-12-8.3-7.3c-4.3,3.9-5.2,11.1-6,16.5c-1.3,7.8-2.5,15.6-3,23.5c0,0.5-0.1,1.1-0.1,1.6c-8-19.4-15.4-39-18.1-59.8c-3.2-24.5,2.4-48.1,18.4-67.1C92.2,103,112,91.1,131.7,81.7c23.3-11.1,48.1-19.9,72.9-26.9c54.7-15.3,114-19.1,167.8,1.4c46,17.5,84.8,52.1,101.1,99.3C480.8,176.7,482,199.4,477.2,221.2z"/><path d="M434.6 249.4c-2.3-19.8-17.8-34.6-37.5-36.5-18.1-1.8-36.6 4.8-52.5 12.9-14.6 7.5-29.2 17-40.5 29-8.3 8.9-16 18.5-22.1 28.9-4.4 7.5-8.7 18.2-4.1 26.1-.1 1.1.1 2.3.9 3.4 29.6 46.1 95.4 24 128.5-5.7C423.4 293.1 437.3 272 434.6 249.4zM406.7 292.6c-16 18.2-38.2 29.7-61.7 34.5-21.1 4.4-42.3.3-55.3-17.3.2-1.6-.2-3.3-1.7-4.7-3.5-3.2 1.3-11.7 3.4-15.5 4.2-7.7 9.8-14.6 15.4-21.2 14.3-16.7 33.2-29.3 53.5-37.7 18.9-7.8 46.2-13.2 59.1 7.1C431.1 256.3 419.3 278.3 406.7 292.6zM246.2 283.8c-6.1-10.5-13.8-20.1-22.1-28.9-11.3-12.1-25.9-21.5-40.5-29-15.9-8.1-34.4-14.6-52.5-12.9-19.7 1.9-35.2 16.7-37.5 36.5-2.6 22.6 11.2 43.6 27.4 58.2 33.1 29.8 98.9 51.8 128.5 5.7.8-1.2 1-2.3.9-3.4C254.9 301.9 250.5 291.3 246.2 283.8zM240.2 305.1c-1.5 1.4-2 3.1-1.7 4.7-13 17.7-34.2 21.7-55.3 17.3-23.5-4.9-45.7-16.4-61.7-34.5-12.6-14.3-24.4-36.3-12.7-54.7 12.9-20.3 40.3-14.9 59.1-7.1 20.3 8.3 39.2 21 53.5 37.7 5.7 6.6 11.2 13.6 15.4 21.2C238.9 293.4 243.7 301.9 240.2 305.1zM260.6 351.4c-3.2.2-5 2.9-5.1 5.9 0 3-.9 5.6-2.4 8.1-1.6 2.5 0 6.1 2.5 7.4 2.9 1.4 5.8.1 7.4-2.5 2.6-4.2 3.5-9 3.6-13.9C266.6 353.4 263.4 351.2 260.6 351.4zM289.5 352.4c-.2-5.6-11.2-4.9-11 .7.2 5.6 2.8 10.9 3 16.5.2 5.6 11.2 4.9 11-.7C292.3 363.3 289.7 358 289.5 352.4zM312.9 410.2c-2 7.1-5.4 13.5-11.8 17.5-6.7 4.2-15.5 4.3-23 4-16.7-.5-34.5-6.8-39.6-24.3-2-6.8-12.4-3.2-10.4 3.6 6.5 22 28.4 30.6 49.6 31.5 10.3.5 20.5-.6 29.6-5.8 9-5.2 13.8-14.9 16.4-24.5C325.6 405.5 314.8 403.4 312.9 410.2zM354.6 179.8c-7.8-11-20.9-17.4-33.5-21.3-6.8-2.1-8.8 8.7-2.1 10.8 9.7 3 20.5 8.2 26.5 16.7C349.6 191.7 358.7 185.6 354.6 179.8zM193.2 136.2c-11.5 5.5-19.5 14.6-28.3 23.6-5 5.1 3.3 12.3 8.3 7.3 7.3-7.4 14.1-15.8 23.7-20.4C203.2 143.5 199.6 133.1 193.2 136.2z"/></svg>